<svg xmlns="http://www.w3.org/2000/svg" xmlns:xlink="http://www.w3.org/1999/xlink" width="77" height="40" viewBox="0 0 77 40">
    <defs>
        <path id="ydo53r83ba" d="M0 39.36L76.8 39.36 76.8 0 0 0z"/>
    </defs>
    <g fill="none" fill-rule="evenodd">
        <path fill="#0040FF" d="M28.16 14.08h-5.12c-1.412 0-2.56-1.149-2.56-2.56v-1.28c0-1.412 1.148-2.56 2.56-2.56h5.12v6.4zm-10.24-3.84v1.28c0 2.823 2.297 5.12 5.12 5.12h5.12c0 1.411-1.148 2.56-2.56 2.56h-4l1.44 2.56h2.56c2.823 0 5.12-2.297 5.12-5.12V5.12h-7.68c-2.823 0-5.12 2.297-5.12 5.12zM74.24 5.12v8.96h-5.12c-1.412 0-2.56-1.149-2.56-2.56v-6.4H64v6.4c0 2.823 2.297 5.12 5.12 5.12h5.12c0 1.411-1.148 2.56-2.56 2.56h-4l1.44 2.56h2.56c2.823 0 5.12-2.297 5.12-5.12V5.12h-2.56zM60.16 14.08h-5.12c-1.412 0-2.56-1.149-2.56-2.56v-1.28c0-1.412 1.148-2.56 2.56-2.56h5.12v6.4zm-10.24-3.84v1.28c0 2.823 2.297 5.12 5.12 5.12h7.68V5.12h-7.68c-2.823 0-5.12 2.297-5.12 5.12z"/>
        <mask id="l5rfg7drmb" fill="#fff">
            <use xlink:href="#ydo53r83ba"/>
        </mask>
        <path fill="#0040FF" d="M14.08 16.64L16.64 16.64 16.64 5.12 14.08 5.12zM10.24 14.08H5.12c-1.412 0-2.56-1.149-2.56-2.56v-1.28c0-1.412 1.148-2.56 2.56-2.56h5.12v6.4zm0-8.96H5.12C2.297 5.12 0 7.417 0 10.24v1.28c0 2.823 2.297 5.12 5.12 5.12h7.68V0h-2.56v5.12zM46.08 11.52c0 1.411-1.148 2.56-2.56 2.56H38.4v-6.4h5.12c1.412 0 2.56 1.148 2.56 2.56v1.28zm-2.56-6.4h-7.68v16.64h2.56v-5.12h5.12c2.823 0 5.12-2.297 5.12-5.12v-1.28c0-2.823-2.297-5.12-5.12-5.12zM14.08 2.56L16.64 2.56 16.64 0 14.08 0zM32 16.64L34.56 16.64 34.56 5.12 32 5.12zM32 2.56L34.56 2.56 34.56 0 32 0z" mask="url(#l5rfg7drmb)"/>
        <path fill="#A3A3A3" d="M1.554 34.17c.264.041.526.072.784.092.26.02.536.03.83.03.498 0 .9-.16 1.204-.48.305-.32.457-.743.457-1.272 0-.599-.15-1.06-.449-1.386-.3-.325-.724-.487-1.272-.487H1.554v3.503zm-.015 4.19H0v-9.14h3.2c.477 0 .908.078 1.294.235.386.158.717.379.99.663.275.284.488.63.64 1.036.153.406.234.859.244 1.356 0 .467-.076.899-.228 1.295-.153.396-.366.736-.64 1.02-.274.285-.605.506-.99.663-.386.158-.808.237-1.265.237-.295 0-.566-.006-.815-.016-.25-.01-.546-.04-.891-.091v2.742zM11.045 30.667c-.548 0-.972.162-1.272.487-.3.325-.45.787-.45 1.386 0 .58.15 1.036.45 1.372.3.335.704.502 1.212.502.274 0 .537-.04.792-.121.253-.082.528-.209.822-.381v-3.245h-1.554zm-.152 5.18c-.487 0-.924-.084-1.31-.252-.386-.168-.714-.401-.983-.7-.27-.3-.475-.653-.617-1.06-.142-.406-.213-.842-.213-1.31 0-.477.073-.919.22-1.325.148-.406.359-.754.633-1.044.274-.29.607-.515.998-.678.39-.162.83-.244 1.318-.244h3.2v6.445h-1.54v-.229c-.528.264-1.097.396-1.706.396zM26.815 35.679L28.354 35.679 28.354 29.234 26.815 29.234zM26.815 28.45L28.354 28.45 28.354 26.88 26.815 26.88zM35.758 35.679h-1.54v-3.626c0-.427-.106-.754-.32-.983-.212-.228-.517-.342-.913-.342h-1.691v4.95h-1.539v-6.444h3.382c.812 0 1.453.236 1.92.709.467.472.7 1.115.7 1.927v3.809zM43.558 29.234h1.539v3.626c0 .427.106.754.32.983.213.229.517.343.914.343h1.69v-4.952h1.54v6.445h-3.383c-.812 0-1.452-.236-1.92-.709-.466-.472-.7-1.114-.7-1.927v-3.809zM15.54 29.234h1.538v3.626c0 .427.107.754.32.983.214.229.518.343.914.343h1.692v-4.952h1.538v6.445H18.16c-.812 0-1.452-.236-1.92-.709-.467-.472-.7-1.114-.7-1.927v-3.809zM50.962 35.679L52.5 35.679 52.5 29.234 50.962 29.234zM50.962 28.45L52.5 28.45 52.5 26.88 50.962 26.88zM60.301 35.679L61.839 35.679 61.839 29.234 60.301 29.234zM60.301 28.45L61.839 28.45 61.839 26.88 60.301 26.88zM66.867 35.679L65.511 35.679 62.54 29.234 64.231 29.234 66.196 33.485 68.162 29.234 69.853 29.234zM72.2 31.84h3.092c-.072-.386-.236-.686-.496-.9-.258-.212-.591-.32-.997-.32-.427 0-.777.108-1.051.32-.275.214-.458.514-.549.9m1.706 4.006c-.497 0-.955-.078-1.37-.236-.417-.157-.77-.38-1.06-.67-.29-.29-.515-.64-.678-1.051-.162-.412-.243-.866-.243-1.364 0-.487.078-.934.236-1.34.157-.407.378-.755.662-1.044.285-.29.625-.515 1.021-.678.396-.162.833-.244 1.31-.244.458 0 .869.071 1.234.214.366.142.68.342.945.601.264.26.467.574.61.945.142.37.218.78.228 1.226 0 .142-.003.26-.008.35-.005.092-.017.224-.038.397l-.045.259h-4.48c.234.772.803 1.158 1.707 1.158.325 0 .642-.026.952-.076.31-.051.657-.128 1.044-.23l.304-.09.29 1.386-.335.091c-.387.112-.755.206-1.105.282-.35.076-.744.114-1.18.114M23.967 35.679c.078-.157.154-.313.23-.47.074-.155.136-.283.186-.383.113-.22.197-.39.25-.511.053-.121.08-.239.08-.352 0-.22-.082-.403-.245-.549-.164-.145-.359-.219-.586-.219-.228 0-.421.074-.581.219-.16.146-.24.329-.24.549 0 .12.029.232.085.336.057.103.135.186.235.25l-.437 1.13h1.023z" mask="url(#l5rfg7drmb)"/>
        <path fill="#A3A3A3" d="M20.041 35.719c-.005.04-.007.076-.007.107-.01.04-.02.086-.03.137-.031.132-.09.304-.176.518-.086.213-.246.411-.48.594-.203.173-.455.315-.754.426-.3.112-.592.219-.876.32l-.183.061c-.06.02-.117.04-.168.061l-.289.107.411 1.31.29-.091c.05-.02.104-.036.16-.046.056-.01.109-.026.16-.046l.564-.167c.203-.061.403-.133.601-.214.198-.081.391-.172.58-.274.187-.101.357-.218.51-.35.74-.64 1.188-1.48 1.188-2.544H20.05c0 .02-.003.05-.008.09M41.41 34.186c-.396 0-.7-.114-.914-.343-.213-.229-.32-.556-.32-.983v-2.148h1.478v-1.478h-1.478v-1.57h-1.539v1.57H37.16v1.478h1.478v2.33c0 .814.234 1.456.701 1.928.467.473 1.107.709 1.92.709h.899v-1.493h-.747zM58.153 34.186c-.397 0-.701-.114-.914-.343-.214-.229-.32-.556-.32-.983v-2.148h1.478v-1.478h-1.478v-1.57h-1.54v1.57h-1.477v1.478h1.478v2.33c0 .814.234 1.456.701 1.928.467.473 1.107.709 1.92.709h.898v-1.493h-.746z" mask="url(#l5rfg7drmb)"/>
    </g>
</svg>
