<svg xmlns="http://www.w3.org/2000/svg" xmlns:xlink="http://www.w3.org/1999/xlink" width="32" height="32" viewBox="0 0 32 32">
    <defs>
        <path id="lt9z4eipra" d="M0 0H32V32H0z"/>
        <path id="nxvjsi351b" d="M0 0H32V32H0z"/>
        <path id="hhenokxthc" d="M13.067 6c6.135-4.063 11.764-3.46 13.896-3.011 1.03.216 1.832 1.018 2.05 2.046.446 2.136 1.052 7.763-3.012 13.899-.218.328-.466.652-.734.972.504.825.788 1.768.788 2.76 0 1.423-.554 2.76-1.561 3.768l-2.901 2.9-3.874-4.592c-.096.023-.2.059-.294.077l-1.758.335-8.82-8.821.334-1.758c.017-.096.054-.198.077-.294l-4.59-3.874 2.9-2.9c1.769-1.77 4.477-2.017 6.527-.773.319-.27.644-.517.972-.733zM8.415 21.746c.508-.51 1.333-.51 1.841 0s.508 1.332 0 1.841L4.89 28.951c-.254.255-.588.382-.92.382-.333 0-.666-.127-.92-.382-.51-.509-.51-1.333 0-1.84zm2.848 2.846c.508-.508 1.333-.508 1.841 0 .508.51.508 1.334 0 1.843l-2.513 2.513c-.255.254-.588.382-.922.382-.333 0-.665-.128-.92-.382-.509-.51-.509-1.333 0-1.841zm12.05-2.77c-.907.742-1.906 1.385-2.912 1.905-.031.015-.059.036-.09.052l1.444 1.71.898-.897c.748-.75.968-1.826.66-2.77zM5.567 18.897c.51-.508 1.333-.508 1.841 0 .51.508.51 1.332 0 1.84l-2.516 2.517c-.253.253-.586.381-.92.381-.333 0-.666-.128-.921-.381-.508-.51-.508-1.332 0-1.841zm5.143-6.304l-.108.192c-.05.096-.105.193-.152.289-.184.379-.343.755-.464 1.116-.101.3-.181.592-.235.872l-.076.399 6.866 6.862.397-.074c.283-.054.577-.134.88-.238.357-.12.727-.277 1.101-.457.102-.05.204-.107.307-.16.06-.032.121-.07.181-.105l-8.697-8.696zm15.743-7.02c-1.838-.406-6.63-.91-11.94 2.609-.484.321-.968.739-1.436 1.207-.311.312-.607.648-.892.996l9.43 9.43c.348-.285.687-.584.999-.893.467-.468.884-.95 1.204-1.433 3.519-5.312 3.015-10.102 2.635-11.915zm-8.49 2.94c1.522-1.522 4-1.524 5.525 0 .737.737 1.144 1.718 1.144 2.761 0 1.044-.407 2.025-1.144 2.763l-.18.169c-.737.649-1.66.973-2.584.973-.999 0-2-.38-2.762-1.142-1.52-1.523-1.52-4.002 0-5.524zm2.76 1.46c-.333 0-.665.128-.92.381-.506.508-.506 1.333 0 1.841.511.51 1.337.508 1.843 0 .247-.246.382-.573.382-.92 0-.348-.135-.674-.382-.92-.254-.254-.588-.382-.922-.382zM10.182 8.687c-.947-.308-2.024-.088-2.772.66l-.896.898 1.712 1.444.044-.076c.52-1.014 1.166-2.016 1.912-2.926z"/>
    </defs>
    <g fill="none" fill-rule="evenodd">
        <g>
            <g>
                <g>
                    <g transform="translate(-496 -140) translate(80 120) translate(295 13) translate(121 7)">
                        <g/>
                        <mask id="rgb294j8ad" fill="#fff">
                            <use xlink:href="#hhenokxthc"/>
                        </mask>
                        <g fill="#0040FF" mask="url(#rgb294j8ad)">
                            <path d="M0 0H32V32H0z"/>
                        </g>
                    </g>
                </g>
            </g>
        </g>
    </g>
</svg>
