<svg xmlns="http://www.w3.org/2000/svg" xmlns:xlink="http://www.w3.org/1999/xlink" width="24" height="24" viewBox="0 0 24 24">
    <defs>
        <path id="mbhzu2yv8a" d="M0 0H24V24H0z"/>
        <path id="56he30n5tb" d="M0 0H24V24H0z"/>
        <path id="r4wqo712wc" d="M10.795 16.295c.39.39 1.02.39 1.41 0L16.5 12l-4.295-4.295c-.39-.39-1.02-.39-1.41 0-.39.39-.39 1.021-.001 1.411L12.67 11H4c-.552 0-1 .448-1 1s.448 1 1 1h8.67l-1.876 1.884c-.39.39-.389 1.021.001 1.411zM19 3H5c-1.105 0-2 .895-2 2v3c0 .552.448 1 1 1s1-.448 1-1V5h14v14H5v-3c0-.552-.448-1-1-1s-1 .448-1 1v3c0 1.105.895 2 2 2h14c1.1 0 2-.9 2-2V5c0-1.1-.9-2-2-2z"/>
    </defs>
    <g fill="none" fill-rule="evenodd" transform="matrix(-1 0 0 1 24 0)">
        <mask id="15denqviyd" fill="#fff">
            <use xlink:href="#r4wqo712wc"/>
        </mask>
        <g fill="#0040ff" mask="url(#15denqviyd)">
            <path d="M0 0H24V24H0z"/>
        </g>
    </g>
</svg>
