<svg xmlns="http://www.w3.org/2000/svg" xmlns:xlink="http://www.w3.org/1999/xlink" width="25" height="24" viewBox="0 0 25 24">
    <defs>
        <path id="7bdgsd1sja" d="M0 0H24V24H0z"/>
        <path id="5vn9v4chtb" d="M0 0H24V24H0z"/>
        <path id="dhtkzolk3c" d="M8 3v1h8V3c0-.552.448-1 1-1s1 .448 1 1v1h1c1.1 0 2 .9 2 2v14c0 1.1-.9 2-2 2H5c-1.11 0-2-.9-2-2l.01-14c0-1.1.88-2 1.99-2h1V3c0-.552.448-1 1-1s1 .448 1 1zm11 7H5v10h14V10zM9 16v2H7v-2h2zm8 0v2h-2v-2h2zm-4 0v2h-2v-2h2zm-4-4v2H7v-2h2zm8 0v2h-2v-2h2zm-4 0v2h-2v-2h2zm6-6H5v2h14V6z"/>
    </defs>
    <g fill="none" fill-rule="evenodd">
        <g>
            <g transform="translate(-109 -152) translate(109.29 152)">
                <g/>
                <mask id="f43scujg8d" fill="#fff">
                    <use xlink:href="#dhtkzolk3c"/>
                </mask>
                <g fill="#424C5C" mask="url(#f43scujg8d)">
                    <path d="M0 0H24V24H0z"/>
                </g>
            </g>
        </g>
    </g>
</svg>
