<?xml version="1.0" encoding="UTF-8"?>
<svg width="96px" height="64px" viewBox="0 0 96 64" version="1.1" xmlns="http://www.w3.org/2000/svg" xmlns:xlink="http://www.w3.org/1999/xlink">
    <title>Path Copy 16</title>
    <g id="Internet-Packages" stroke="none" stroke-width="1" fill="none" fill-rule="evenodd">
        <g id="Charge-@Desktop-Copy-33" transform="translate(-814.000000, -320.000000)" fill="#F0F5FF" stroke="#0040FF" stroke-width="2">
            <g id="Group-2" transform="translate(428.000000, 120.000000)">
                <g id="Group-5" transform="translate(386.000000, 200.000000)">
                    <path d="M71.8312678,1 C73.5651184,1 75.2372702,1.64347691 76.5238384,2.8057935 L76.5238384,2.8057935 L92.6925706,17.4130135 C94.1616409,18.7402068 95,20.6274196 95,22.60722 L95,22.60722 L95,56 C95,57.9329966 94.2164983,59.6829966 92.9497475,60.9497475 C91.6829966,62.2164983 89.9329966,63 88,63 L88,63 L8,63 C6.06700338,63 4.31700338,62.2164983 3.05025253,60.9497475 C1.78350169,59.6829966 1,57.9329966 1,56 L1,56 L1,8 C1,6.06700338 1.78350169,4.31700338 3.05025253,3.05025253 C4.31700338,1.78350169 6.06700338,1 8,1 L8,1 Z" id="Path-Copy-16" transform="translate(48.000000, 32.000000) scale(-1, 1) translate(-48.000000, -32.000000) "></path>
                </g>
            </g>
        </g>
    </g>
</svg>