<?xml version="1.0" encoding="UTF-8"?>
<svg width="96px" height="64px" viewBox="0 0 96 64" version="1.1" xmlns="http://www.w3.org/2000/svg" xmlns:xlink="http://www.w3.org/1999/xlink">
    <title>Path Copy 16</title>
    <g id="Internet-Packages" stroke="none" stroke-width="1" fill="none" fill-rule="evenodd">
        <g id="Charge-@Desktop-Copy-33" transform="translate(-696.000000, -320.000000)" fill="#F2F5F8" stroke="#DEE3E7">
            <g id="Group-2" transform="translate(428.000000, 120.000000)">
                <g id="Group-5" transform="translate(268.000000, 200.000000)">
                    <path d="M71.8312678,0.5 C73.6889648,0.5 75.4805561,1.18943955 76.859022,2.43477875 L76.859022,2.43477875 L93.0277542,17.0419987 C94.6017581,18.4639916 95.5,20.4860053 95.5,22.60722 L95.5,22.60722 L95.5,56 C95.5,58.0710678 94.6605339,59.9460678 93.3033009,61.3033009 C91.9460678,62.6605339 90.0710678,63.5 88,63.5 L88,63.5 L8,63.5 C5.92893219,63.5 4.05393219,62.6605339 2.69669914,61.3033009 C1.33946609,59.9460678 0.5,58.0710678 0.5,56 L0.5,56 L0.5,8 C0.5,5.92893219 1.33946609,4.05393219 2.69669914,2.69669914 C4.05393219,1.33946609 5.92893219,0.5 8,0.5 L8,0.5 Z" id="Path-Copy-16" transform="translate(48.000000, 32.000000) scale(-1, 1) translate(-48.000000, -32.000000) "></path>
                </g>
            </g>
        </g>
    </g>
</svg>