<svg xmlns="http://www.w3.org/2000/svg" xmlns:xlink="http://www.w3.org/1999/xlink" width="20" height="20" viewBox="0 0 20 20">
    <defs>
        <path id="r7qjynyefa" d="M0 0H20V20H0z"/>
        <path id="yiuukttovb" d="M0 0H20V20H0z"/>
        <path id="44uf7bl4qc" d="M10 2.5c2.301 0 4.167 1.865 4.167 4.167 0 1.2-.508 2.281-1.32 3.041 1.08.547 1.95 1.48 2.404 2.659l.373.966c.609 1.58-.177 3.353-1.756 3.962-.352.135-.726.205-1.103.205H7.231c-1.693 0-3.064-1.372-3.064-3.064 0-.377.07-.75.205-1.103l.373-.966c.455-1.18 1.325-2.114 2.406-2.661-.811-.76-1.318-1.84-1.318-3.04C5.833 4.367 7.7 2.5 10 2.5zm.586 8.333H9.41c-1.32 0-2.511.78-3.044 1.976l-.066.158-.373.966c-.062.16-.094.331-.094.503 0 .731.562 1.331 1.277 1.392l.12.005h5.535c.172 0 .343-.031.503-.093.68-.263 1.038-.999.841-1.686l-.04-.12-.373-.967c-.475-1.232-1.63-2.062-2.938-2.13l-.172-.004zM10 4.167c-1.38 0-2.5 1.119-2.5 2.5 0 1.38 1.12 2.5 2.5 2.5s2.5-1.12 2.5-2.5c0-1.381-1.12-2.5-2.5-2.5z"/>
    </defs>
    <g fill="none" fill-rule="evenodd">
        <g>
            <g>
                <g>
                    <g>
                        <g transform="translate(-59 -50) translate(0 24) translate(16 20) translate(16 5) translate(27 1)">
                            <g/>
                            <mask id="6kpykrilcd" fill="#fff">
                                <use xlink:href="#44uf7bl4qc"/>
                            </mask>
                            <path fill="#979797" fill-rule="nonzero" d="M12.5 10.833c.46 0 .833.373.833.834v1.666H15c.46 0 .833.373.833.834 0 .46-.373.833-.833.833h-1.667v1.667c0 .46-.373.833-.833.833-.46 0-.833-.373-.833-.833V15H10c-.46 0-.833-.373-.833-.833 0-.46.373-.834.833-.834h1.667v-1.666c0-.46.373-.834.833-.834zM10 2.5c2.301 0 4.167 1.865 4.167 4.167 0 2.24-1.769 4.068-3.986 4.162l-.181.004H8.68c-1.264 0-2.414.715-2.977 1.836l-.073.155-.52 1.18c-.072.166-.11.345-.11.526 0 .68.52 1.238 1.185 1.298l.119.005h2.863c.46 0 .833.373.833.834 0 .427-.322.78-.736.827l-.097.006H6.304c-1.64 0-2.97-1.33-2.97-2.97 0-.412.085-.82.25-1.197l.52-1.18c.554-1.257 1.585-2.206 2.827-2.67-.682-.74-1.098-1.73-1.098-2.816C5.833 4.365 7.7 2.5 10 2.5zm0 1.667c-1.38 0-2.5 1.119-2.5 2.5 0 1.38 1.12 2.5 2.5 2.5s2.5-1.12 2.5-2.5c0-1.381-1.12-2.5-2.5-2.5z" mask="url(#6kpykrilcd)"/>
                            <g fill="#6E798D" mask="url(#6kpykrilcd)">
                                <path d="M0 0H20V20H0z"/>
                            </g>
                        </g>
                    </g>
                </g>
            </g>
        </g>
    </g>
</svg>
