<svg xmlns="http://www.w3.org/2000/svg" xmlns:xlink="http://www.w3.org/1999/xlink" width="20" height="20" viewBox="0 0 20 20">
    <defs>
        <path id="2u9gt01xka" d="M0 0H20V20H0z"/>
        <path id="36hepynyxb" d="M0 0H20V20H0z"/>
        <path id="g9x659lrkc" d="M10 12.5c.46 0 .833.373.833.833 0 .46-.373.834-.833.834-.46 0-.833-.373-.833-.834 0-.46.373-.833.833-.833zm0-6.667c.46 0 .833.373.833.834v4.166c0 .46-.373.834-.833.834-.46 0-.833-.373-.833-.834V6.667c0-.46.373-.834.833-.834zm-.008-4.166c-4.6 0-8.325 3.733-8.325 8.333s3.725 8.333 8.325 8.333c4.608 0 8.341-3.733 8.341-8.333S14.6 1.667 9.992 1.667zm.008 15c-3.683 0-6.667-2.984-6.667-6.667S6.317 3.333 10 3.333 16.667 6.317 16.667 10 13.683 16.667 10 16.667z"/>
    </defs>
    <g fill="none" fill-rule="evenodd">
        <path d="M0 0H20V20H0z"/>
        <mask id="kegl6861qd" fill="#fff">
            <use xlink:href="#g9x659lrkc"/>
        </mask>
        <g fill="#00CC6D" mask="url(#kegl6861qd)">
            <path d="M0 0H20V20H0z"/>
        </g>
    </g>
</svg>
